<?xml version="1.0" encoding="utf-8"?>
<!-- Generator: Adobe Illustrator 22.1.0, SVG Export Plug-In . SVG Version: 6.00 Build 0)  -->
<!DOCTYPE svg PUBLIC "-//W3C//DTD SVG 1.1//EN" "http://www.w3.org/Graphics/SVG/1.1/DTD/svg11.dtd">
<svg version="1.1" id="Layer_1" xmlns="http://www.w3.org/2000/svg" xmlns:xlink="http://www.w3.org/1999/xlink" x="0px" y="0px"
	 viewBox="0 0 81 104" style="enable-background:new 0 0 81 104;" xml:space="preserve">
<style type="text/css">
	.st0{fill:#FFFFFF;}
</style>
<title>rise-logo</title>
<desc>Created with Sketch.</desc>
<g id="Page-1">
	<g id="rise-logo" transform="translate(0.000000, -1.000000)">
		<path id="Fill-1" class="st0" d="M29.5,1.6c2.2,0,4.2,0.4,6,1.1c1.8,0.7,3.3,1.7,4.6,2.9c1.3,1.2,2.2,2.7,2.9,4.3
			c0.7,1.6,1,3.4,1,5.3c0,2.9-0.6,5.4-1.8,7.5c-1.2,2.1-3.2,3.7-6,4.8v0.1c1.3,0.4,2.4,0.9,3.3,1.7c0.9,0.8,1.6,1.7,2.1,2.7
			c0.6,1,1,2.2,1.2,3.4c0.3,1.2,0.4,2.5,0.5,3.7c0,0.8,0.1,1.7,0.1,2.8c0,1.1,0.1,2.1,0.2,3.3c0.1,1.1,0.3,2.2,0.6,3.1
			c0.3,1,0.6,1.8,1.1,2.5H34.6c-0.6-1.6-1-3.4-1.1-5.6c-0.1-2.2-0.3-4.2-0.6-6.2c-0.4-2.6-1.2-4.5-2.4-5.7c-1.2-1.2-3.2-1.8-5.9-1.8
			H13.7v19.3H2.9V1.6H29.5z M25.6,24c2.5,0,4.4-0.6,5.6-1.7c1.2-1.1,1.9-2.9,1.9-5.4c0-2.4-0.6-4.1-1.9-5.2
			c-1.2-1.1-3.1-1.6-5.6-1.6H13.7V24H25.6L25.6,24z"/>
		<polygon id="Fill-3" class="st0" points="50.6,51.1 61.4,51.1 61.4,1.6 50.6,1.6 		"/>
		<polygon id="Fill-4" class="st0" points="67.9,51 80.6,51 80.6,38.2 67.9,38.2 		"/>
		<path id="Fill-5" class="st0" d="M11.8,91.6c0.6,1.2,1.4,2.1,2.4,2.8c1,0.7,2.2,1.2,3.5,1.6c1.3,0.3,2.7,0.5,4.2,0.5
			c1,0,2-0.1,3.1-0.2c1.1-0.2,2.1-0.5,3.1-0.9c1-0.5,1.8-1.1,2.4-1.9c0.6-0.8,1-1.8,1-3.1c0-1.3-0.4-2.4-1.3-3.3s-2-1.5-3.4-2.1
			c-1.4-0.6-3-1-4.7-1.5c-1.8-0.4-3.5-0.9-5.3-1.4c-1.8-0.5-3.6-1-5.4-1.7c-1.8-0.7-3.3-1.5-4.7-2.6c-1.4-1.1-2.5-2.4-3.4-4
			C2.4,72.3,2,70.4,2,68.1c0-2.5,0.5-4.7,1.6-6.6c1.1-1.9,2.5-3.4,4.3-4.7c1.8-1.2,3.7-2.2,6-2.8c2.2-0.6,4.4-0.9,6.6-0.9
			c2.6,0,5.1,0.3,7.4,0.9c2.4,0.6,4.5,1.5,6.3,2.8c1.8,1.3,3.3,2.9,4.4,4.9c1.1,2,1.6,4.4,1.6,7.3H29.8c-0.1-1.5-0.4-2.7-0.9-3.7
			c-0.5-1-1.2-1.7-2.1-2.3c-0.9-0.6-1.9-0.9-3-1.2c-1.1-0.2-2.4-0.3-3.7-0.3c-0.9,0-1.8,0.1-2.6,0.3c-0.9,0.2-1.7,0.5-2.4,1
			s-1.3,1-1.8,1.7c-0.5,0.7-0.7,1.6-0.7,2.6c0,1,0.2,1.8,0.6,2.4c0.4,0.6,1.1,1.2,2.2,1.7c1.1,0.5,2.6,1,4.5,1.5
			c1.9,0.5,4.4,1.2,7.5,1.9c0.9,0.2,2.2,0.5,3.8,1c1.6,0.5,3.3,1.3,4.9,2.3c1.6,1.1,3,2.5,4.2,4.3c1.2,1.8,1.8,4,1.8,6.8
			c0,2.3-0.4,4.4-1.3,6.3c-0.9,1.9-2.2,3.6-3.9,5c-1.7,1.4-3.9,2.5-6.4,3.3c-2.6,0.8-5.5,1.2-8.9,1.2c-2.7,0-5.4-0.3-7.9-1
			c-2.6-0.7-4.8-1.7-6.8-3.2c-2-1.4-3.5-3.3-4.7-5.5c-1.2-2.2-1.7-4.8-1.7-7.9h10.5C10.9,89,11.2,90.4,11.8,91.6"/>
		<polyline id="Fill-6" class="st0" points="80.6,54.3 80.6,63.5 56.4,63.5 56.4,74.1 79.1,74.1 79.1,82.5 56.4,82.5 56.4,94.6 
			80.6,94.6 80.6,103.8 45.5,103.8 45.5,54.3 80.6,54.3 		"/>
	</g>
</g>
</svg>
